<mxfile host="app.diagrams.net" modified="2024-04-08T14:24:49.146Z" agent="Mozilla/5.0 (X11; Linux x86_64) AppleWebKit/537.36 (KHTML, like Gecko) Chrome/123.0.0.0 Safari/537.36" etag="nmTGrFXzo_DfhkxjjUXk" version="24.2.2" type="device">
  <diagram name="Page-1" id="Q6U6XYD97AZ3LG6bv43R">
    <mxGraphModel dx="880" dy="520" grid="1" gridSize="10" guides="1" tooltips="1" connect="1" arrows="1" fold="1" page="1" pageScale="1" pageWidth="827" pageHeight="1169" math="0" shadow="0">
      <root>
        <mxCell id="0" />
        <mxCell id="1" parent="0" />
        <mxCell id="NgBJWWvK-QcEgkvHbhEE-15" style="edgeStyle=orthogonalEdgeStyle;rounded=0;orthogonalLoop=1;jettySize=auto;html=1;entryX=0.5;entryY=0;entryDx=0;entryDy=0;" edge="1" parent="1" source="NgBJWWvK-QcEgkvHbhEE-4" target="NgBJWWvK-QcEgkvHbhEE-10">
          <mxGeometry relative="1" as="geometry" />
        </mxCell>
        <mxCell id="NgBJWWvK-QcEgkvHbhEE-19" style="edgeStyle=orthogonalEdgeStyle;rounded=0;orthogonalLoop=1;jettySize=auto;html=1;entryX=0.5;entryY=1;entryDx=0;entryDy=0;" edge="1" parent="1" source="NgBJWWvK-QcEgkvHbhEE-4" target="NgBJWWvK-QcEgkvHbhEE-17">
          <mxGeometry relative="1" as="geometry" />
        </mxCell>
        <mxCell id="NgBJWWvK-QcEgkvHbhEE-4" value="" style="swimlane;startSize=0;" vertex="1" parent="1">
          <mxGeometry x="80" y="120" width="720" height="130" as="geometry" />
        </mxCell>
        <mxCell id="NgBJWWvK-QcEgkvHbhEE-5" value="Product Service" style="rounded=0;whiteSpace=wrap;html=1;" vertex="1" parent="NgBJWWvK-QcEgkvHbhEE-4">
          <mxGeometry x="170" y="25" width="120" height="60" as="geometry" />
        </mxCell>
        <mxCell id="NgBJWWvK-QcEgkvHbhEE-6" value="User Service" style="rounded=0;whiteSpace=wrap;html=1;" vertex="1" parent="NgBJWWvK-QcEgkvHbhEE-4">
          <mxGeometry x="20" y="25" width="120" height="60" as="geometry" />
        </mxCell>
        <mxCell id="NgBJWWvK-QcEgkvHbhEE-7" value="Review Service" style="rounded=0;whiteSpace=wrap;html=1;" vertex="1" parent="NgBJWWvK-QcEgkvHbhEE-4">
          <mxGeometry x="310" y="25" width="120" height="60" as="geometry" />
        </mxCell>
        <mxCell id="NgBJWWvK-QcEgkvHbhEE-8" value="Order Service" style="rounded=0;whiteSpace=wrap;html=1;" vertex="1" parent="NgBJWWvK-QcEgkvHbhEE-4">
          <mxGeometry x="450" y="25" width="120" height="60" as="geometry" />
        </mxCell>
        <mxCell id="NgBJWWvK-QcEgkvHbhEE-9" value="Payment Service" style="rounded=0;whiteSpace=wrap;html=1;" vertex="1" parent="NgBJWWvK-QcEgkvHbhEE-4">
          <mxGeometry x="580" y="25" width="120" height="60" as="geometry" />
        </mxCell>
        <mxCell id="NgBJWWvK-QcEgkvHbhEE-21" value="Services" style="text;html=1;align=center;verticalAlign=middle;whiteSpace=wrap;rounded=0;fontSize=17;" vertex="1" parent="NgBJWWvK-QcEgkvHbhEE-4">
          <mxGeometry x="305" y="93" width="110" height="30" as="geometry" />
        </mxCell>
        <mxCell id="NgBJWWvK-QcEgkvHbhEE-16" style="edgeStyle=orthogonalEdgeStyle;rounded=0;orthogonalLoop=1;jettySize=auto;html=1;entryX=0.5;entryY=1;entryDx=0;entryDy=0;" edge="1" parent="1" source="NgBJWWvK-QcEgkvHbhEE-10" target="NgBJWWvK-QcEgkvHbhEE-4">
          <mxGeometry relative="1" as="geometry" />
        </mxCell>
        <mxCell id="NgBJWWvK-QcEgkvHbhEE-10" value="" style="swimlane;startSize=0;" vertex="1" parent="1">
          <mxGeometry x="170" y="300" width="540" height="160" as="geometry" />
        </mxCell>
        <mxCell id="NgBJWWvK-QcEgkvHbhEE-13" value="MongoDB&lt;div&gt;Cloud&lt;/div&gt;" style="shape=cylinder3;whiteSpace=wrap;html=1;boundedLbl=1;backgroundOutline=1;size=15;" vertex="1" parent="NgBJWWvK-QcEgkvHbhEE-10">
          <mxGeometry x="40" y="20" width="130" height="120" as="geometry" />
        </mxCell>
        <mxCell id="NgBJWWvK-QcEgkvHbhEE-14" value="Cloudinary File Storage&lt;div&gt;Cloud&lt;/div&gt;" style="shape=cube;whiteSpace=wrap;html=1;boundedLbl=1;backgroundOutline=1;darkOpacity=0.05;darkOpacity2=0.1;" vertex="1" parent="NgBJWWvK-QcEgkvHbhEE-10">
          <mxGeometry x="311" y="20" width="190" height="120" as="geometry" />
        </mxCell>
        <mxCell id="NgBJWWvK-QcEgkvHbhEE-22" value="Data Store" style="text;html=1;align=center;verticalAlign=middle;whiteSpace=wrap;rounded=0;fontSize=15;" vertex="1" parent="NgBJWWvK-QcEgkvHbhEE-10">
          <mxGeometry x="220" y="128" width="100" height="30" as="geometry" />
        </mxCell>
        <mxCell id="NgBJWWvK-QcEgkvHbhEE-20" style="edgeStyle=orthogonalEdgeStyle;rounded=0;orthogonalLoop=1;jettySize=auto;html=1;" edge="1" parent="1" source="NgBJWWvK-QcEgkvHbhEE-17">
          <mxGeometry relative="1" as="geometry">
            <mxPoint x="440" y="120" as="targetPoint" />
          </mxGeometry>
        </mxCell>
        <mxCell id="NgBJWWvK-QcEgkvHbhEE-17" value="REST APIs" style="rounded=0;whiteSpace=wrap;html=1;" vertex="1" parent="1">
          <mxGeometry x="290" y="50" width="300" height="30" as="geometry" />
        </mxCell>
        <mxCell id="NgBJWWvK-QcEgkvHbhEE-23" value="Backend Architecture" style="text;html=1;align=center;verticalAlign=middle;whiteSpace=wrap;rounded=0;fontSize=30;" vertex="1" parent="1">
          <mxGeometry x="230" y="481" width="420" height="30" as="geometry" />
        </mxCell>
      </root>
    </mxGraphModel>
  </diagram>
</mxfile>
